HIERARCHY
ROOT SpineBase
{
  OFFSET 0.000000 0.000000 0.000000
  CHANNELS 6 Xposition Yposition Zposition Zrotation Xrotation Yrotation
  JOINT SpineMid
  {
    OFFSET 0.000000 32.105430 -0.000000
    CHANNELS 3 Zrotation Xrotation Yrotation
    JOINT SpineShoulder
    {
      OFFSET -0.006198 23.755567 -0.562144
      CHANNELS 3 Zrotation Xrotation Yrotation
      JOINT Neck
      {
        OFFSET 0.101551 7.897201 -0.550632
        CHANNELS 3 Zrotation Xrotation Yrotation
        JOINT Head
        {
          OFFSET 3.523674 13.156648 4.710237
          CHANNELS 3 Zrotation Xrotation Yrotation
          End Site
          {
            OFFSET 0 0 0
          }
        }
      }
      JOINT ShoulderLeft
      {
        OFFSET -10.701874 -3.249237 -11.008758
        CHANNELS 3 Zrotation Xrotation Yrotation
        JOINT ElbowLeft
        {
          OFFSET -6.165476 -24.974224 -7.194964
          CHANNELS 3 Zrotation Xrotation Yrotation
          JOINT WristLeft
          {
            OFFSET 1.492535 -19.804339 -5.618479
            CHANNELS 3 Zrotation Xrotation Yrotation
            JOINT HandLeft
            {
              OFFSET 2.416874 -8.694190 0.371934
              CHANNELS 3 Zrotation Xrotation Yrotation
              JOINT HandTipLeft
              {
                OFFSET 1.470667 -8.069037 -0.914345
                CHANNELS 3 Zrotation Xrotation Yrotation
                End Site
                {
                  OFFSET 0 0 0
                }
              }
              JOINT ThumbLeft
              {
                OFFSET -0.607494 -3.960431 -1.849641
                CHANNELS 3 Zrotation Xrotation Yrotation
                End Site
                {
                  OFFSET 0 0 0
                }
              }
            }
          }
        }
      }
      JOINT ShoulderRight
      {
        OFFSET 12.622619 -5.464773 11.563876
        CHANNELS 3 Zrotation Xrotation Yrotation
        JOINT ElbowRight
        {
          OFFSET 3.147573 -26.831268 4.140010
          CHANNELS 3 Zrotation Xrotation Yrotation
          JOINT WristRight
          {
            OFFSET 1.704528 -23.046263 -2.713839
            CHANNELS 3 Zrotation Xrotation Yrotation
            JOINT HandRight
            {
              OFFSET 1.049577 -7.628597 -0.039330
              CHANNELS 3 Zrotation Xrotation Yrotation
              JOINT HandTipRight
              {
                OFFSET -0.339636 -8.135935 -0.516333
                CHANNELS 3 Zrotation Xrotation Yrotation
                End Site
                {
                  OFFSET 0 0 0
                }
              }
              JOINT ThumbRight
              {
                OFFSET -3.186279 0.858989 -1.008705
                CHANNELS 3 Zrotation Xrotation Yrotation
                End Site
                {
                  OFFSET 0 0 0
                }
              }
            }
          }
        }
      }
    }
  }
  JOINT HipLeft
  {
    OFFSET -5.089705 1.826533 -7.626123
    CHANNELS 3 Zrotation Xrotation Yrotation
    JOINT KneeLeft
    {
      OFFSET -10.670727 -34.701797 -7.411470
      CHANNELS 3 Zrotation Xrotation Yrotation
      JOINT AnkleLeft
      {
        OFFSET -4.672441 -38.535575 1.141650
        CHANNELS 3 Zrotation Xrotation Yrotation
        JOINT FootLeft
        {
          OFFSET 2.331170 -7.516986 -6.426634
          CHANNELS 3 Zrotation Xrotation Yrotation
          End Site
          {
            OFFSET 0 0 0
          }
        }
      }
    }
  }
  JOINT HipRight
  {
    OFFSET 5.558746 0.423746 0.746109
    CHANNELS 3 Zrotation Xrotation Yrotation
    JOINT KneeRight
    {
      OFFSET -4.809761 -38.943349 2.600049
      CHANNELS 3 Zrotation Xrotation Yrotation
      JOINT AnkleRight
      {
        OFFSET -4.370352 -36.941075 4.582913
        CHANNELS 3 Zrotation Xrotation Yrotation
        JOINT FootRight
        {
          OFFSET 3.312887 -7.151194 -6.721429
          CHANNELS 3 Zrotation Xrotation Yrotation
          End Site
          {
            OFFSET 0 0 0
          }
        }
      }
    }
  }
}
MOTION
Frames: 13
Frame Time: 0.033333
-22.515140 97.419862 331.994455 -0.000000 -0.000000 -38.175827 -0.000000 0.000000 38.175827 -0.000000 0.000000 0.000000 -0.000000 0.000000 0.000000 0.000000 0.000000 0.000000 -0.000000 0.000000 0.000000 -0.000000 0.000000 0.000000 -0.000000 0.000000 0.000000 -0.000000 0.000000 0.000000 0.000000 0.000000 0.000000 0.000000 0.000000 0.000000 -0.000000 0.000000 0.000000 -0.000000 0.000000 0.000000 -0.000000 0.000000 0.000000 -0.000000 0.000000 0.000000 0.000000 0.000000 0.000000 0.000000 0.000000 0.000000 -0.000000 0.000000 38.175827 -0.000000 0.000000 0.000000 -0.000000 0.000000 0.000000 0.000000 0.000000 0.000000 -0.000000 0.000000 38.175827 -0.000000 0.000000 0.000000 -0.000000 0.000000 0.000000 0.000000 0.000000 0.000000
-22.358870 97.441611 331.932001 0.182633 0.111792 -38.694467 -0.072655 -0.201429 38.694161 -0.000000 0.000000 0.000000 -0.000000 0.000000 0.000000 0.000000 0.000000 0.000000 -0.000000 0.000000 0.000000 1.188881 0.316927 -0.316204 -0.774146 0.992643 0.690161 -0.795575 -2.110271 -0.504236 0.000000 0.000000 0.000000 0.000000 0.000000 0.000000 -0.000000 0.000000 0.000000 -0.000000 0.000000 0.000000 -0.696469 0.635489 0.094964 0.695457 -0.636596 -0.087238 0.000000 0.000000 0.000000 0.000000 0.000000 0.000000 -0.072655 -0.201429 38.694161 -0.000000 0.000000 0.000000 -0.000000 0.000000 0.000000 0.000000 0.000000 0.000000 -0.072655 -0.201429 38.694161 -0.000000 0.000000 0.000000 0.549881 -0.182376 -0.600009 0.000000 0.000000 0.000000
-22.214839 97.464340 331.876021 0.351935 0.218770 -39.131052 -0.134937 -0.391804 39.129919 -0.000000 0.000000 0.000000 -0.000000 0.000000 0.000000 0.000000 0.000000 0.000000 -0.000000 0.000000 0.000000 2.188636 0.593390 -0.585895 -1.690953 1.811307 1.252806 -1.195389 -3.817996 -0.927979 0.000000 0.000000 0.000000 0.000000 0.000000 0.000000 -0.000000 0.000000 0.000000 -0.000000 0.000000 0.000000 -1.266924 1.314117 0.202168 2.335890 -0.934009 -0.236233 0.000000 0.000000 0.000000 0.000000 0.000000 0.000000 -0.134937 -0.391804 39.129919 -0.000000 0.000000 0.000000 -0.000000 0.000000 0.000000 0.000000 0.000000 0.000000 -0.134937 -0.391804 39.129919 -0.000000 0.000000 0.000000 0.990814 -0.344375 -1.086535 0.000000 0.000000 0.000000
-22.083049 97.488049 331.826514 0.507896 0.320929 -39.486006 -0.187923 -0.570647 39.483647 -0.000000 0.000000 0.000000 -0.000000 0.000000 0.000000 0.000000 0.000000 0.000000 0.799279 0.488889 -0.354551 2.204485 0.358744 -0.435679 -2.749374 2.453903 1.698160 -1.184579 -5.125380 -1.250246 0.000000 0.000000 0.000000 0.000000 0.000000 0.000000 -0.000000 0.000000 0.000000 -0.000000 0.000000 0.000000 -1.719879 2.040364 0.320881 3.268435 -1.228843 -0.348297 0.000000 0.000000 0.000000 0.000000 0.000000 0.000000 -0.187923 -0.570647 39.483647 -0.000000 0.000000 0.000000 0.740490 0.501202 -0.478145 0.000000 0.000000 0.000000 -0.187923 -0.570647 39.483647 -0.000000 0.000000 0.000000 1.322854 -0.483095 -1.459532 0.000000 0.000000 0.000000
-21.963499 97.512738 331.783481 0.650506 0.418267 -39.759722 -0.232584 -0.737567 39.755850 -0.000000 0.000000 0.000000 -0.000000 0.000000 0.000000 0.000000 0.000000 0.000000 0.991871 0.637451 -0.448888 2.651836 0.425199 -0.506898 -3.952174 2.919362 2.032726 -0.747436 -6.032337 -1.454883 0.000000 0.000000 0.000000 0.000000 0.000000 0.000000 -0.000000 0.000000 0.000000 -0.000000 0.000000 0.000000 -2.061698 2.819419 0.450415 4.047814 -1.408027 -0.461615 0.000000 0.000000 0.000000 0.000000 0.000000 0.000000 -0.232584 -0.737567 39.755850 -0.000000 0.000000 0.000000 0.928792 0.458229 -0.651819 0.000000 0.000000 0.000000 -0.232584 -0.737567 39.755850 -0.793939 -0.191767 -0.077060 2.340589 -0.401589 -1.649930 0.000000 0.000000 0.000000
-21.856190 97.538406 331.746922 0.779752 0.510782 -39.952547 -0.269790 -0.892253 39.946971 -0.000000 0.000000 0.000000 -0.000000 0.000000 0.000000 0.000000 0.000000 0.000000 1.146804 0.778743 -0.530716 2.965477 0.468721 -0.543672 -5.305642 3.206918 2.259261 0.131651 -6.535378 -1.530974 0.000000 0.000000 0.000000 0.000000 0.000000 0.000000 -0.000000 0.000000 0.000000 -0.000000 0.000000 0.000000 -2.296802 3.657252 0.590059 4.674515 -1.474212 -0.580177 0.000000 0.000000 0.000000 0.000000 0.000000 0.000000 -0.269790 -0.892253 39.946971 -0.904159 -0.323238 0.009845 1.992125 0.633167 -0.853358 0.000000 0.000000 0.000000 -0.269790 -0.892253 39.946971 -0.917613 -0.250521 -0.086105 2.579132 -0.428474 -1.790615 0.000000 0.000000 0.000000
-21.779932 97.574206 331.685197 0.885472 0.630175 -40.062155 -0.272177 -1.052178 40.054787 -0.000000 0.000000 0.000000 -0.000000 0.000000 0.000000 0.000000 0.000000 0.000000 1.248265 0.947995 -0.604181 3.195518 0.435100 -0.549799 -7.208344 3.654596 2.479565 1.835684 -6.573888 -1.459395 0.000000 0.000000 0.000000 0.000000 0.000000 0.000000 -0.000000 0.000000 0.000000 -0.000000 0.000000 0.000000 -2.453651 4.938066 0.800458 5.331475 -0.763472 -0.803980 0.000000 0.000000 0.000000 0.000000 0.000000 0.000000 -0.272177 -1.052178 40.054787 -1.137548 -0.364380 0.006853 2.533409 0.268267 -1.241012 0.000000 0.000000 0.000000 -0.272177 -1.052178 40.054787 -1.003163 -0.311530 -0.090203 2.701474 -0.220256 -1.756252 0.000000 0.000000 0.000000
-21.688680 97.595726 331.699078 0.999307 0.674236 -40.011769 -0.331992 -1.158861 40.002531 0.784338 0.530657 0.044251 -0.784781 -0.530002 -0.051513 0.000000 0.000000 0.000000 0.512633 0.547011 -0.691466 3.171447 0.459241 -0.496688 -8.932329 3.700037 2.494537 4.409370 -6.299858 -1.274711 0.000000 0.000000 0.000000 0.000000 0.000000 0.000000 -0.784781 -0.530002 -0.051513 -0.000000 0.000000 0.000000 -2.427611 5.695364 0.919957 5.864388 -1.170369 -0.881296 0.000000 0.000000 0.000000 0.000000 0.000000 0.000000 -0.331992 -1.158861 40.002531 -1.308801 -0.386683 0.003687 2.847011 -0.165341 -1.501603 0.000000 0.000000 0.000000 -0.331992 -1.158861 40.002531 -0.983235 -0.396704 -0.078341 2.752399 0.421922 -1.582281 0.000000 0.000000 0.000000
-21.597485 97.622470 331.708307 1.106555 0.724295 -39.910895 -0.384214 -1.265467 39.899658 0.946309 0.636195 0.052574 -0.946950 -0.635240 -0.063077 0.000000 0.000000 0.000000 0.389973 0.546529 -0.738914 3.100715 0.504753 -0.438775 -10.869612 3.284458 2.327943 6.826499 -5.935574 -1.021880 0.000000 0.000000 0.000000 0.000000 0.000000 0.000000 -0.946950 -0.635240 -0.063077 -0.000000 0.000000 0.000000 -2.626762 6.529277 1.065722 6.346879 -0.962205 -0.993267 0.000000 0.000000 0.000000 0.000000 0.000000 0.000000 -0.384214 -1.265467 39.899658 -1.412951 -0.380312 -0.000438 3.037288 -0.309134 -1.613651 0.000000 0.000000 0.000000 -0.384214 -1.265467 39.899658 -1.097591 -0.478443 -0.084012 2.627116 0.213974 -1.490208 0.000000 0.000000 0.000000
-21.508005 97.649154 331.709499 1.208624 0.777374 -39.894710 -0.428879 -1.371529 39.881377 1.107370 0.741035 0.060558 -1.108245 -0.739726 -0.074874 0.000000 0.000000 0.000000 0.279419 0.546149 -0.789589 2.863173 0.525737 -0.336103 -12.421795 2.357180 1.916080 8.804036 -5.361597 -0.751475 0.000000 0.000000 0.000000 0.000000 0.000000 0.000000 -1.108245 -0.739726 -0.074874 0.808425 0.059891 -0.091138 -3.243838 7.134969 1.248219 5.490498 -2.285299 -1.002717 0.000000 0.000000 0.000000 0.000000 0.000000 0.000000 -0.428879 -1.371529 39.881377 -1.422740 -0.370764 -0.001797 2.943216 -0.047399 -1.439833 0.000000 0.000000 0.000000 -0.428879 -1.371529 39.881377 -1.230445 -0.554056 -0.092882 2.363083 -0.359854 -1.414502 0.000000 0.000000 0.000000
-21.417482 97.671398 331.722085 1.314464 0.806877 -39.887652 -0.129518 -0.595983 39.898449 0.461595 0.379110 0.057496 -1.295533 -0.810034 -0.089020 0.000000 0.000000 0.000000 0.103838 0.528207 -0.818833 2.498498 0.587972 -0.215043 -13.836496 1.141136 1.310875 9.900406 -3.309228 -0.203728 0.000000 0.000000 0.000000 0.000000 0.000000 0.000000 -0.790163 -0.185829 0.066567 0.435699 -0.632455 -0.254929 -2.964895 7.889063 1.350832 4.214989 -3.646689 -1.057968 0.000000 0.000000 0.000000 0.000000 0.000000 0.000000 -0.491385 -1.461966 39.872126 -1.359916 -0.400127 0.003471 2.628437 0.053122 -1.208966 0.000000 0.000000 0.000000 -1.182790 -0.946717 39.740618 -1.156713 -1.463264 -0.003662 1.732567 -1.580325 -1.302741 0.000000 0.000000 0.000000
-21.372851 97.685384 331.738890 1.359695 0.831718 -39.891856 -0.093056 -0.555346 39.904962 0.485646 0.406205 0.062460 -1.419014 -0.869458 -0.098465 0.000000 0.000000 0.000000 -0.026016 0.462586 -0.823401 1.946355 0.660656 -0.061633 -14.505167 -0.253290 0.560729 12.135394 -0.793858 0.246319 0.000000 0.000000 0.000000 0.000000 0.000000 0.000000 -0.833602 -0.059723 0.091598 0.455411 -0.954499 -0.306641 -2.354154 8.150264 1.341888 2.817812 -4.932316 -1.075907 0.000000 0.000000 0.000000 0.000000 0.000000 0.000000 -0.510075 -1.510060 39.875265 -1.318107 -0.381921 0.002859 2.295573 -0.088375 -0.996453 0.000000 0.000000 0.000000 -1.246327 -0.875504 39.730893 -1.338678 -1.701799 -0.002719 1.184052 -2.493778 -1.149428 0.000000 0.000000 0.000000
-21.314502 97.694885 331.714817 1.439514 0.898580 -39.988582 -0.053304 -0.505402 40.004183 0.529904 0.443784 0.069917 -1.605390 -0.986765 -0.112991 0.000000 0.000000 0.000000 -0.209588 0.360539 -0.839775 1.307049 0.677751 0.121132 -14.275638 -1.524707 -0.138469 12.117172 2.160079 0.810057 0.000000 0.000000 0.000000 0.000000 0.000000 0.000000 -0.940047 0.140960 0.126894 0.286395 -1.505057 -0.359851 -0.885901 9.009031 1.326903 0.284264 -7.438059 -1.215806 0.000000 0.000000 0.000000 0.000000 0.000000 0.000000 -0.525763 -1.613420 39.969890 -1.296863 -0.405244 0.006118 2.123728 0.085966 -0.824746 0.000000 0.000000 0.000000 -1.274905 -0.906685 39.819014 -1.582836 -1.874793 -0.018621 0.745612 -3.730028 -1.192792 0.000000 0.000000 0.000000
